<svg width="54" height="50" viewBox="0 0 54 50" fill="none" xmlns="http://www.w3.org/2000/svg">
<path d="M26.999 1.49805C27.1575 1.49805 27.3123 1.54842 27.4404 1.6416C27.5685 1.73476 27.664 1.86595 27.7129 2.0166V2.01758L33.0068 18.3145L33.2314 19.0049H51.5C51.6601 19.0048 51.8164 19.0564 51.9453 19.1514C52.0742 19.2464 52.1694 19.3803 52.2168 19.5332C52.2642 19.6862 52.2616 19.8507 52.209 20.002C52.1695 20.1154 52.1029 20.2169 52.0166 20.2988L51.9238 20.374L37.7002 30.1191L37.0752 30.5469L37.3174 31.2637L42.8008 47.5098C42.8388 47.6224 42.8496 47.7427 42.832 47.8604C42.8145 47.978 42.7685 48.0898 42.6992 48.1865C42.63 48.2831 42.5393 48.3626 42.4336 48.417C42.3278 48.4715 42.2098 48.4998 42.0908 48.5H42.0889C41.9707 48.5004 41.8547 48.4724 41.75 48.4199L41.6494 48.3594L27.5859 38.1641L26.999 37.7383L26.4121 38.1641L12.3457 48.3623C12.2169 48.4557 12.0614 48.5055 11.9023 48.5049C11.7433 48.5043 11.5881 48.4527 11.46 48.3584C11.3322 48.2641 11.2372 48.1319 11.1895 47.9805C11.1417 47.8287 11.1434 47.6653 11.1943 47.5146L11.1953 47.5137L16.6807 31.2637L16.9229 30.5479L16.2988 30.1191L2.08008 20.3691V20.3682L1.9873 20.2939C1.90112 20.2121 1.83546 20.1103 1.7959 19.9971C1.7432 19.846 1.73998 19.6812 1.78711 19.5283C1.83428 19.3756 1.92914 19.2416 2.05762 19.1465C2.15394 19.0752 2.26569 19.0289 2.38281 19.0098L2.50195 19H20.7676L20.9922 18.3086L26.2861 2.01758V2.0166C26.335 1.86594 26.4305 1.73474 26.5586 1.6416C26.6867 1.54853 26.8407 1.49811 26.999 1.49805Z" stroke="#112211" stroke-width="2"/>
</svg>
