<svg width="301" height="94" viewBox="0 0 301 94" fill="none" xmlns="http://www.w3.org/2000/svg">
<path d="M26.8916 19.2578H72.7171V31.0728H44.029V39.868H70.641V51.1545H44.029V62.0635H73.5476V74.5957H26.8916V19.2578Z" fill="#0B3B2D"/>
<path d="M47.4986 47.7797C47.1243 31.4353 31.9548 27.7651 24.4168 27.973C22.2334 42.893 19.1766 72.8575 24.4168 73.3566C30.9671 73.9804 47.9665 68.2103 47.4986 47.7797Z" fill="#F9F9F9"/>
<path fill-rule="evenodd" clip-rule="evenodd" d="M27.1092 33.2773C36.7613 33.2773 44.5857 40.9978 44.5857 50.5215C44.5857 60.0452 36.7613 67.7657 27.1092 67.7657C17.4573 67.7657 9.63281 60.0452 9.63281 50.5215C9.63281 40.9978 17.4573 33.2773 27.1092 33.2773ZM26.4775 34.5677C24.4839 34.8446 22.5854 36.4253 21.1117 39.0691C20.6842 39.836 20.2985 40.6832 19.9624 41.5981C21.9662 41.1011 24.1674 40.8082 26.4775 40.7629V34.5677ZM18.4853 42.0122C18.9033 40.7178 19.4146 39.527 20.0047 38.4684C20.7353 37.1578 21.6023 36.026 22.5791 35.1568C17.2672 36.679 13.0802 40.8103 11.5375 46.0516C12.4185 45.0877 13.5655 44.2322 14.8938 43.5114C15.9666 42.9292 17.1735 42.4246 18.4853 42.0122ZM18.0655 43.4696C17.562 45.4468 17.2651 47.6188 17.2192 49.8982H10.9406C11.2212 47.9309 12.8232 46.0577 15.5026 44.6037C16.2798 44.1819 17.1385 43.8013 18.0655 43.4696ZM18.4829 49.8982C18.5351 47.4107 18.8979 45.0753 19.4984 43.0119C21.5897 42.4194 23.9567 42.0612 26.4775 42.0097V44.7023C25.537 47.078 23.6188 48.9706 21.211 49.8982H18.4829ZM17.2192 51.1448H10.9406C11.2212 53.1121 12.8232 54.9852 15.5026 56.4393C16.2798 56.8611 17.1385 57.2417 18.0655 57.5734C17.562 55.5962 17.2651 53.4242 17.2192 51.1448ZM19.4984 58.0312C18.8979 55.9677 18.5351 53.6324 18.4829 51.1448H21.211C23.6188 52.0724 25.5372 53.965 26.4775 56.3408V59.0334C23.9567 58.9819 21.5897 58.6236 19.4984 58.0312ZM18.4853 59.0308C17.1735 58.6184 15.9666 58.1138 14.8938 57.5317C13.5655 56.8109 12.4185 55.9553 11.5375 54.9914C13.0802 60.2327 17.2672 64.364 22.5791 65.8862C21.6023 65.0169 20.7353 63.8852 20.0047 62.5745C19.4146 61.516 18.9033 60.3252 18.4853 59.0308ZM26.4775 66.4753C24.4839 66.1984 22.5854 64.6177 21.1117 61.9739C20.6842 61.2071 20.2985 60.3597 19.9624 59.4449C21.9662 59.9419 24.1674 60.2347 26.4775 60.2801V66.4753ZM31.6394 65.8862C32.6162 65.0169 33.4833 63.8852 34.2138 62.5745C34.8039 61.516 35.3152 60.3252 35.7332 59.0308C37.045 58.6184 38.2518 58.1138 39.3247 57.5317C40.6529 56.8109 41.8001 55.9553 42.6809 54.9914C41.1382 60.2327 36.9513 64.364 31.6394 65.8862ZM34.2562 59.4449C33.9199 60.3597 33.5343 61.2071 33.1068 61.9739C31.6333 64.6177 29.7347 66.1984 27.741 66.4753V60.2801C30.0511 60.2347 32.2523 59.9419 34.2562 59.4449ZM36.1529 57.5734C37.08 57.2417 37.9387 56.8611 38.7159 56.4393C41.3953 54.9852 42.9974 53.1121 43.2779 51.1448H36.9993C36.9533 53.4242 36.6565 55.5962 36.1529 57.5734ZM35.7357 51.1448C35.6836 53.6324 35.3204 55.9677 34.7201 58.0312C32.6289 58.6236 30.262 58.9819 27.741 59.0334V56.3428C28.681 53.9661 30.5997 52.0727 33.0082 51.1448H35.7357ZM36.9993 49.8982H43.2779C42.9974 47.9309 41.3953 46.0577 38.7159 44.6037C37.9387 44.1819 37.08 43.8013 36.1529 43.4696C36.6565 45.4468 36.9533 47.6188 36.9993 49.8982ZM34.7201 43.0119C35.3204 45.0753 35.6836 47.4107 35.7357 49.8982H33.0082C30.5997 48.9703 28.681 47.0769 27.741 44.7003V42.0097C30.262 42.0612 32.6289 42.4194 34.7201 43.0119ZM35.7332 42.0122C37.045 42.4246 38.2518 42.9292 39.3247 43.5114C40.6529 44.2322 41.8001 45.0877 42.6809 46.0516C41.1382 40.8103 36.9513 36.679 31.6394 35.1568C32.6162 36.026 33.4833 37.1578 34.2138 38.4684C34.8039 39.527 35.3152 40.7178 35.7332 42.0122ZM27.741 34.5677C29.7347 34.8446 31.6333 36.4253 33.1068 39.0691C33.5343 39.836 33.9199 40.6832 34.2562 41.5981C32.2523 41.1011 30.0511 40.8082 27.741 40.7629V34.5677Z" fill="#0B3B2D"/>
<circle cx="26.7565" cy="50.4323" r="21.5222" stroke="#F9F9F9" stroke-width="4.05491"/>
<path d="M75.4812 75L90.8383 53.0669L76.1227 32.417H89.876L97.4142 44.1253L105.353 32.417H118.585L104.151 52.5858L119.909 75H106.075L97.4142 61.8081L88.6731 75H75.4812ZM122.999 32.417H133.505V38.6721C134.868 36.5336 136.712 34.7961 139.038 33.4595C141.364 32.1229 143.943 31.4547 146.777 31.4547C151.722 31.4547 155.919 33.3927 159.367 37.2687C162.816 41.1448 164.54 46.5445 164.54 53.4679C164.54 60.5784 162.802 66.1118 159.327 70.0681C155.852 73.9976 151.642 75.9623 146.697 75.9623C144.344 75.9623 142.206 75.4945 140.281 74.5589C138.383 73.6233 136.378 72.0195 134.267 69.7473V91.1992H122.999V32.417ZM134.146 52.9867C134.146 57.7717 135.095 61.3136 136.993 63.6125C138.891 65.8846 141.203 67.0207 143.93 67.0207C146.55 67.0207 148.728 65.9782 150.466 63.8931C152.203 61.7814 153.072 58.333 153.072 53.5481C153.072 49.084 152.177 45.7693 150.386 43.6041C148.595 41.4388 146.376 40.3562 143.729 40.3562C140.976 40.3562 138.691 41.4254 136.873 43.564C135.055 45.6757 134.146 48.8167 134.146 52.9867ZM194.896 61.4472L206.124 63.3318C204.68 67.4484 202.395 70.5893 199.267 72.7546C196.166 74.8931 192.277 75.9623 187.599 75.9623C180.194 75.9623 174.714 73.5431 171.159 68.7048C168.352 64.8287 166.949 59.9369 166.949 54.0293C166.949 46.9722 168.793 41.4522 172.482 37.4692C176.171 33.4595 180.836 31.4547 186.476 31.4547C192.811 31.4547 197.81 33.5531 201.472 37.7499C205.135 41.92 206.885 48.3221 206.725 56.9564H178.497C178.577 60.2978 179.486 62.9041 181.223 64.7753C182.961 66.6197 185.126 67.542 187.719 67.542C189.483 67.542 190.967 67.0608 192.17 66.0985C193.373 65.1361 194.282 63.5857 194.896 61.4472ZM195.538 50.0597C195.458 46.7984 194.616 44.3258 193.012 42.6417C191.408 40.9309 189.457 40.0755 187.158 40.0755C184.698 40.0755 182.667 40.971 181.063 42.762C179.459 44.553 178.671 46.9856 178.697 50.0597H195.538ZM223.449 75H212.181V32.417H222.647V38.4716C224.438 35.6114 226.042 33.7268 227.458 32.818C228.902 31.9091 230.533 31.4547 232.35 31.4547C234.916 31.4547 237.389 32.163 239.768 33.5798L236.28 43.4036C234.382 42.1739 232.618 41.5591 230.987 41.5591C229.41 41.5591 228.073 42.0002 226.977 42.8823C225.881 43.7377 225.012 45.3015 224.371 47.5737C223.756 49.8458 223.449 54.604 223.449 61.8482V75ZM241.375 26.643V16.2178H252.643V26.643H241.375ZM241.375 75V32.417H252.643V75H241.375ZM269.366 45.4084L259.141 43.564C260.291 39.4473 262.269 36.4 265.076 34.4218C267.883 32.4437 272.053 31.4547 277.586 31.4547C282.612 31.4547 286.354 32.0561 288.813 33.259C291.273 34.4352 292.997 35.9455 293.986 37.79C295.002 39.6077 295.509 42.9625 295.509 47.8543L295.389 61.0061C295.389 64.7485 295.563 67.5152 295.91 69.3062C296.285 71.0705 296.966 72.9684 297.955 75H286.808C286.514 74.2515 286.153 73.1422 285.726 71.6719C285.539 71.0037 285.405 70.5626 285.325 70.3487C283.4 72.2199 281.342 73.6233 279.15 74.5589C276.958 75.4945 274.619 75.9623 272.133 75.9623C267.749 75.9623 264.287 74.7728 261.748 72.3937C259.235 70.0146 257.979 67.0073 257.979 63.3719C257.979 60.9661 258.553 58.8275 259.703 56.9564C260.852 55.0584 262.456 53.6149 264.514 52.6259C266.599 51.6101 269.593 50.728 273.496 49.9795C278.762 48.9904 282.411 48.0682 284.443 47.2128V46.0901C284.443 43.9248 283.908 42.3878 282.839 41.4789C281.77 40.5433 279.751 40.0755 276.784 40.0755C274.779 40.0755 273.215 40.4765 272.093 41.2784C270.97 42.0536 270.061 43.4303 269.366 45.4084ZM284.443 54.5505C282.999 55.0317 280.714 55.6064 277.586 56.2747C274.459 56.943 272.414 57.5979 271.451 58.2395C269.981 59.282 269.246 60.6052 269.246 62.2091C269.246 63.7862 269.834 65.1495 271.01 66.299C272.186 67.4484 273.683 68.0231 275.501 68.0231C277.533 68.0231 279.471 67.3548 281.315 66.0183C282.678 65.0025 283.574 63.7595 284.002 62.2893C284.296 61.3269 284.443 59.4958 284.443 56.796V54.5505Z" fill="#0B3B2D"/>
<path d="M11.0158 26.0743L16.9541 27.8393C18.206 26.9326 20.8275 25.3253 21.5148 25.9782L21.5186 25.9751C21.5243 25.9823 21.5281 25.991 21.5333 25.9984C21.5417 26.0075 21.5515 26.0153 21.5593 26.0251L21.554 26.0294C22.0298 26.8495 19.8567 29.0249 18.6832 30.0314L19.0153 36.2173L17.8114 37.4158L16.084 32.0817L11.6847 34.8901L11.8419 37.0808L11.128 37.6439L9.43942 35.5032L9.44019 35.5026L7.7921 33.4132L8.50594 32.8501L10.5999 33.5132L14.3549 29.8895L9.56974 26.9674L11.0158 26.0743Z" fill="#0B3B2D"/>
<path d="M7.92594 37.356C4.57047 42.3546 3.15178 48.6477 4.47474 55.0076C7.08346 67.5485 19.3646 75.6001 31.9055 72.9913C44.4464 70.3826 52.498 58.1015 49.8893 45.5606C47.8114 35.5716 39.597 28.4308 30.0027 27.2565" stroke="#0B3B2D" stroke-width="1.92309"/>
</svg>
